<svg xmlns="http://www.w3.org/2000/svg" width="400" height="478.049" viewBox="0 0 400 478.049"><path d="M188.8 37.376c0 11.777-.156 21.073-.355 21.196-.195.121-2.58.41-5.3.644-2.72.233-6.565.694-8.545 1.025s-4.59.761-5.8.957c-44.583 7.234-85.809 35.752-112.108 77.553-3.396 5.397-9.633 18.146-12.157 24.849-4.104 10.899-5.502 15.419-7.296 23.6-1.758 8.015-1.984 9.37-2.633 15.75-.338 3.327-.793 7.051-1.011 8.274-.497 2.797-.52 20.647-.03 22.899.201.922.576 3.837.832 6.477C39.995 298.203 77.945 348.292 135 373.381c8.947 3.934 30.775 10.178 35.7 10.213l.9.006v-8.351c0-9.106.041-8.943-2.4-9.443-40.299-8.258-74.776-32.727-97.306-69.06-1.042-1.68-1.894-3.139-1.894-3.241s-.966-1.968-2.147-4.146C54.255 264.284 48.619 232.276 52.646 203c1.31-9.523 2.81-15.726 6.625-27.4 11.953-36.573 42.724-70.215 78.901-86.264 15.749-6.987 34.632-11.854 47.428-12.226l3.8-.11.094 175.596c.052 96.579.183 175.827.291 176.109.152.397 2.046.487 8.506.403L206.6 429l.2-21.2.2-21.2 3.2-.28c24.239-2.12 50.423-10.066 67.862-20.596a325 325 0 0 1 4.406-2.591c58.173-33.55 90.553-106.077 76.715-171.831-3.005-14.278-6.783-25.462-13.207-39.102-9.049-19.215-26.007-40.624-43.457-54.865-14.528-11.856-31.22-21.666-45.719-26.869-1.87-.671-5.2-1.876-7.4-2.679-5.056-1.844-18.546-5.254-22.215-5.616l-2.785-.274v17.242l4.7 1.073c35.314 8.062 64.391 27.043 87.245 56.953 12.256 16.039 23.107 41.752 26.095 61.835.229 1.54.676 4.51.993 6.6 1.271 8.369 1.167 25.469-.22 36.2-6.191 47.919-37.836 91.333-82.013 112.515-16.74 8.026-34.366 12.882-50.563 13.929l-4.237.274V16.4h-17.6z" fill="#080808" fill-rule="evenodd"/></svg>